<?xml version="1.0" encoding="UTF-8"?>
<svg id="Layer_1" xmlns="http://www.w3.org/2000/svg" version="1.1" viewBox="0 0 209.5 46.3">
  <!-- Generator: Adobe Illustrator 30.2.1, SVG Export Plug-In . SVG Version: 2.1.1 Build 1)  -->
  <defs>
    <style>
      .st0 {
        fill: #ffac0e;
      }

      .st1 {
        fill: #ffce00;
      }

      .st2 {
        fill: #f2eded;
      }

      .st3 {
        fill: #ffbd07;
      }

      .st4 {
        fill: #ff9b15;
      }

      .st5 {
        fill: #ff8a1c;
      }
    </style>
  </defs>
  <circle class="st0" cx="19.9" cy="2.8" r="2.8"/>
  <circle class="st5" cx="1.8" cy="13.2" r="1.8"/>
  <circle class="st4" cx="10.9" cy="8" r="2.3"/>
  <circle class="st0" cx="37.9" cy="34" r="2.8"/>
  <circle class="st5" cx="19.9" cy="44.5" r="1.8"/>
  <circle class="st4" cx="28.9" cy="39.2" r="2.3"/>
  <circle class="st1" cx="37.9" cy="13.2" r="3.7"/>
  <circle class="st0" cx="19.9" cy="23.6" r="2.8"/>
  <circle class="st4" cx="10.9" cy="28.8" r="2.3"/>
  <circle class="st5" cx="1.8" cy="34" r="1.8"/>
  <circle class="st3" cx="28.9" cy="18.4" r="3.2"/>
  <circle class="st3" cx="28.9" cy="8" r="3.2"/>
  <circle class="st4" cx="10.9" cy="18.4" r="2.3"/>
  <circle class="st5" cx="1.8" cy="23.6" r="1.8"/>
  <circle class="st0" cx="19.9" cy="13.2" r="2.8"/>
  <circle class="st3" cx="37.9" cy="23.6" r="3.2"/>
  <circle class="st4" cx="19.9" cy="34" r="2.3"/>
  <circle class="st5" cx="10.9" cy="39.2" r="1.8"/>
  <circle class="st0" cx="28.9" cy="28.8" r="2.8"/>
  <path class="st2" d="M73,23.7c-.8-.4-1.6-.6-2.6-.7.7-.1,1.4-.3,2-.6.9-.5,1.7-1.2,2.1-2,.5-.8.7-1.8.7-2.9,0-2.2-.7-3.9-2.2-5.2-1.5-1.2-3.7-1.9-6.5-1.9h-7.5v25.9h8.4c2.8,0,5-.6,6.6-1.9,1.6-1.2,2.3-3,2.3-5.3s-.3-2.3-.8-3.3-1.4-1.7-2.5-2.2h0ZM62.8,14h3.8c1.6,0,2.8.3,3.5,1,.8.6,1.1,1.6,1.1,2.7s-.4,2.1-1.1,2.7-1.9,1-3.5,1h-3.8v-7.4h0ZM71.1,31.7c-.8.7-2,1-3.7,1h-4.6v-7.8h4.6c1.6,0,2.8.4,3.7,1.1s1.3,1.7,1.3,3-.4,2.1-1.2,2.8h0Z"/>
  <path class="st2" d="M88.2,32.2l-5.5-15.3h-4l7.1,18.8h1.2l-.7,1.7c-.2.5-.4.8-.8,1-.3.2-.8.3-1.5.3h-2.4v3.1h2.7c1.4,0,2.4-.3,3.3-.8.8-.5,1.4-1.3,1.8-2.5l7.7-21.6h-3.9l-5.1,15.3h0Z"/>
  <path class="st2" d="M106.6,12.3h-3.7v4.6h-3.9v3.1h3.9v10.7c0,1.9.5,3.3,1.4,4.2s2.4,1.4,4.4,1.4h5.4v-3.1h-5c-.8,0-1.5-.2-1.9-.7-.4-.4-.6-1.1-.6-2v-10.5h7.6v-3.1h-7.6v-4.6h0Z"/>
  <path class="st2" d="M129.7,17.7c-1.3-.8-2.8-1.2-4.6-1.2s-3.4.4-4.7,1.3-2.4,2-3.1,3.5c-.7,1.5-1.1,3.3-1.1,5.3s.4,3.8,1.1,5.4c.7,1.5,1.8,2.7,3.1,3.5s2.9,1.2,4.8,1.2,3.9-.5,5.3-1.7,2.4-2.6,3-4.4l-3.9-.3c-.3.9-.8,1.6-1.6,2.1-.8.5-1.7.8-2.8.8s-2.7-.5-3.6-1.4c-.9-1-1.4-2.4-1.6-4.2h13.8v-1c0-2.1-.4-4-1.1-5.5s-1.8-2.7-3.1-3.5h0ZM120.1,24.8c.2-1.6.8-2.8,1.7-3.6s2-1.2,3.4-1.2,2.4.4,3.3,1.2c.9.8,1.4,2,1.5,3.7h-9.8Z"/>
  <polygon class="st0" points="155.2 21.5 143.2 21.5 143.2 10.4 139.3 10.4 139.3 36.3 143.2 36.3 143.2 25.1 155.2 25.1 155.2 36.3 159.1 36.3 159.1 10.4 155.2 10.4 155.2 21.5"/>
  <rect class="st0" x="164.3" y="16.9" width="3.9" height="19.4"/>
  <rect class="st0" x="164.3" y="10.2" width="4" height="3.9"/>
  <polygon class="st0" points="180.8 32.4 175.5 16.9 171.4 16.9 178.5 36.3 183.1 36.3 190.2 16.9 186.1 16.9 180.8 32.4"/>
  <path class="st0" d="M209.5,26.8c0-2.2-.4-4-1.1-5.5s-1.8-2.7-3.1-3.5c-1.3-.8-2.9-1.2-4.6-1.2s-3.4.4-4.8,1.3-2.4,2-3.1,3.5c-.7,1.5-1.1,3.3-1.1,5.3s.4,3.8,1.1,5.4c.7,1.5,1.8,2.7,3.2,3.5s3,1.2,4.9,1.2,4-.5,5.4-1.7c1.5-1.1,2.5-2.6,3-4.4l-4-.3c-.3.9-.8,1.6-1.6,2.1-.8.5-1.7.8-2.8.8s-2.8-.5-3.7-1.4c-.9-1-1.4-2.4-1.5-4.3h13.9v-1h0ZM195.6,24.8c.2-1.6.8-2.9,1.7-3.8.9-.9,2-1.3,3.4-1.3s2.4.4,3.3,1.2,1.4,2.1,1.5,3.8h-9.9Z"/>
</svg>